<svg width="360" height="800" viewBox="0 0 360 800" fill="none" xmlns="http://www.w3.org/2000/svg">
  <defs>
    <linearGradient id="bg" x1="0" y1="0" x2="0" y2="1">
      <stop offset="0%" stop-color="#F6F3EE"/>
      <stop offset="100%" stop-color="#EFE9E1"/>
    </linearGradient>
    <filter id="shadow" x="-20%" y="-20%" width="140%" height="140%" color-interpolation-filters="sRGB">
      <feDropShadow dx="0" dy="8" stdDeviation="12" flood-color="#000000" flood-opacity="0.12"/>
    </filter>
    <filter id="soft" x="-20%" y="-20%" width="140%" height="140%" color-interpolation-filters="sRGB">
      <feDropShadow dx="0" dy="3" stdDeviation="6" flood-color="#000000" flood-opacity="0.10"/>
    </filter>
    <linearGradient id="badge" x1="0" y1="0" x2="1" y2="1">
      <stop offset="0%" stop-color="#CFEAE4"/>
      <stop offset="100%" stop-color="#E7F4F1"/>
    </linearGradient>
  </defs>

  <rect width="360" height="800" fill="url(#bg)"/>

  <rect x="16" y="16" width="328" height="768" rx="18" fill="#E9E3DA"/>
  <rect x="24" y="24" width="312" height="752" rx="22" fill="#FFFDFB" filter="url(#shadow)"/>

  <circle cx="246" cy="134" r="70" fill="#F1E8DC" opacity="0.85"/>
  <circle cx="92" cy="192" r="48" fill="#EFE9E1" opacity="0.85"/>

  <g filter="url(#soft)">
    <circle cx="180" cy="150" r="44" fill="url(#badge)"/>
  </g>
  <g transform="translate(148 118) scale(0.8)">
    <path
      d="M20 30 Q30 24 40 30 Q50 24 60 30 L60 54 Q50 60 40 54 Q30 60 20 54 Z"
      fill="#FFFFFF"
      stroke="#0F6B5C"
      stroke-width="2"
    />
    <line x1="40" y1="30" x2="40" y2="54" stroke="#0F6B5C" stroke-width="2"/>
    <line x1="26" y1="36" x2="36" y2="36" stroke="#0F6B5C" stroke-width="1.5" stroke-linecap="round"/>
    <line x1="26" y1="42" x2="36" y2="42" stroke="#0F6B5C" stroke-width="1.5" stroke-linecap="round"/>
    <line x1="26" y1="48" x2="36" y2="48" stroke="#0F6B5C" stroke-width="1.5" stroke-linecap="round"/>
    <line x1="44" y1="36" x2="54" y2="36" stroke="#0F6B5C" stroke-width="1.5" stroke-linecap="round"/>
    <line x1="44" y1="42" x2="54" y2="42" stroke="#0F6B5C" stroke-width="1.5" stroke-linecap="round"/>
    <line x1="44" y1="48" x2="54" y2="48" stroke="#0F6B5C" stroke-width="1.5" stroke-linecap="round"/>
  </g>

  <text x="180" y="226" text-anchor="middle" font-family="Literata, Georgia, serif" font-size="24" fill="#2D2924" font-weight="600">Bem-vindo(a)</text>
  <text x="180" y="250" text-anchor="middle" font-family="Work Sans, Arial, sans-serif" font-size="13" fill="#6C655D">Leia com traducoes instantaneas</text>

  <rect x="52" y="272" width="256" height="80" rx="14" fill="#F7F2EC"/>
  <circle cx="70" cy="297" r="9" fill="#CFEAE4"/>
  <circle cx="70" cy="327" r="9" fill="#CFEAE4"/>
  <text x="94" y="301" font-family="Work Sans, Arial, sans-serif" font-size="12" fill="#4E4841">Toque para traduzir palavras</text>
  <text x="94" y="331" font-family="Work Sans, Arial, sans-serif" font-size="12" fill="#4E4841">Leia sem interromper o ritmo</text>

  <g filter="url(#soft)">
    <rect x="52" y="370" width="256" height="44" rx="14" fill="#0F6B5C"/>
  </g>
  <text x="180" y="398" text-anchor="middle" font-family="Work Sans, Arial, sans-serif" font-size="15" fill="#FFFFFF" font-weight="600">Entrar</text>

  <rect x="80" y="428" width="72" height="1" fill="#E6E0D7"/>
  <rect x="208" y="428" width="72" height="1" fill="#E6E0D7"/>
  <text x="180" y="432" text-anchor="middle" font-family="Work Sans, Arial, sans-serif" font-size="12" fill="#8A8278">ou</text>

  <rect x="52" y="454" width="256" height="44" rx="14" fill="#FFFDFB" stroke="#0F6B5C" stroke-width="2"/>
  <text x="180" y="482" text-anchor="middle" font-family="Work Sans, Arial, sans-serif" font-size="15" fill="#0F6B5C" font-weight="600">Criar conta</text>

  <text x="180" y="532" text-anchor="middle" font-family="Work Sans, Arial, sans-serif" font-size="11" fill="#9A9288">Primeira vez aqui? E rapido e gratuito.</text>
</svg>
