<svg width="360" height="800" viewBox="0 0 360 800" fill="none" xmlns="http://www.w3.org/2000/svg">
  <defs>
    <linearGradient id="bg" x1="0" y1="0" x2="0" y2="1">
      <stop offset="0%" stop-color="#F6F3EE"/>
      <stop offset="100%" stop-color="#EFE9E1"/>
    </linearGradient>
    <filter id="shadow" x="-20%" y="-20%" width="140%" height="140%" color-interpolation-filters="sRGB">
      <feDropShadow dx="0" dy="8" stdDeviation="12" flood-color="#000000" flood-opacity="0.12"/>
    </filter>
    <filter id="soft" x="-20%" y="-20%" width="140%" height="140%" color-interpolation-filters="sRGB">
      <feDropShadow dx="0" dy="3" stdDeviation="6" flood-color="#000000" flood-opacity="0.10"/>
    </filter>
    <linearGradient id="badge" x1="0" y1="0" x2="1" y2="1">
      <stop offset="0%" stop-color="#CFEAE4"/>
      <stop offset="100%" stop-color="#E7F4F1"/>
    </linearGradient>
  </defs>

  <!-- Background -->
  <rect width="360" height="800" fill="url(#bg)"/>

  <!-- Generic browser window -->
  <rect x="10" y="10" width="340" height="780" rx="18" fill="#E9E3DA"/>
  <rect x="16" y="16" width="328" height="56" rx="14" fill="#F7F2EC"/>
  <circle cx="34" cy="34" r="6" fill="#D9D2C7"/>
  <circle cx="54" cy="34" r="6" fill="#D9D2C7"/>
  <circle cx="74" cy="34" r="6" fill="#D9D2C7"/>
  <rect x="96" y="28" width="228" height="20" rx="10" fill="#EAE3DA"/>
  <rect x="104" y="32" width="120" height="12" rx="6" fill="#CFC7BB"/>

  <!-- Login card -->
  <rect x="16" y="80" width="328" height="690" rx="22" fill="#FFFDFB" filter="url(#shadow)"/>

  <!-- Decorative shapes -->
  <circle cx="300" cy="148" r="70" fill="#F1E8DC"/>
  <circle cx="74" cy="210" r="48" fill="#EFE9E1"/>

  <!-- Logo badge -->
  <g filter="url(#soft)">
    <circle cx="180" cy="176" r="46" fill="url(#badge)"/>
  </g>
  <path d="M146 160 Q160 152 180 160 Q200 152 214 160 L214 194 Q200 202 180 194 Q160 202 146 194 Z" fill="#FFFFFF" stroke="#0F6B5C" stroke-width="2"/>
  <line x1="180" y1="160" x2="180" y2="194" stroke="#0F6B5C" stroke-width="2"/>
  <line x1="154" y1="168" x2="172" y2="168" stroke="#0F6B5C" stroke-width="1.5" stroke-linecap="round"/>
  <line x1="154" y1="178" x2="172" y2="178" stroke="#0F6B5C" stroke-width="1.5" stroke-linecap="round"/>
  <line x1="154" y1="188" x2="172" y2="188" stroke="#0F6B5C" stroke-width="1.5" stroke-linecap="round"/>
  <line x1="188" y1="168" x2="206" y2="168" stroke="#0F6B5C" stroke-width="1.5" stroke-linecap="round"/>
  <line x1="188" y1="178" x2="206" y2="178" stroke="#0F6B5C" stroke-width="1.5" stroke-linecap="round"/>
  <line x1="188" y1="188" x2="206" y2="188" stroke="#0F6B5C" stroke-width="1.5" stroke-linecap="round"/>

  <!-- Headline -->
  <text x="180" y="254" text-anchor="middle" font-family="Noto Serif, Literata, Georgia, serif" font-size="22" fill="#2D2924" font-weight="600">Bem-vindo(a)</text>
  <text x="180" y="280" text-anchor="middle" font-family="Noto Sans, Inter, Arial, sans-serif" font-size="13" fill="#6C655D">Leia com traducoes instantaneas</text>

  <!-- Feature bullets -->
  <rect x="60" y="316" width="240" height="72" rx="14" fill="#F7F2EC"/>
  <circle cx="82" cy="340" r="10" fill="#CFEAE4"/>
  <circle cx="82" cy="368" r="10" fill="#CFEAE4"/>
  <text x="98" y="344" font-family="Noto Sans, Inter, Arial, sans-serif" font-size="12" fill="#4E4841">Toque para traduzir palavras</text>
  <text x="98" y="372" font-family="Noto Sans, Inter, Arial, sans-serif" font-size="12" fill="#4E4841">Leia sem interromper o ritmo</text>

  <!-- Primary button -->
  <g filter="url(#soft)">
    <rect x="56" y="514" width="248" height="48" rx="14" fill="#0F6B5C"/>
  </g>
  <text x="180" y="544" text-anchor="middle" font-family="Noto Sans, Inter, Arial, sans-serif" font-size="16" fill="#FFFFFF" font-weight="600">Entrar</text>

  <!-- Divider -->
  <rect x="84" y="572" width="64" height="1" fill="#E6E0D7"/>
  <text x="180" y="578" text-anchor="middle" font-family="Noto Sans, Inter, Arial, sans-serif" font-size="12" fill="#8A8278">ou</text>
  <rect x="212" y="572" width="64" height="1" fill="#E6E0D7"/>

  <!-- Secondary button -->
  <rect x="56" y="592" width="248" height="48" rx="14" fill="#FFFDFB" stroke="#0F6B5C" stroke-width="2"/>
  <text x="180" y="622" text-anchor="middle" font-family="Noto Sans, Inter, Arial, sans-serif" font-size="16" fill="#0F6B5C" font-weight="600">Criar conta</text>

  <!-- Footer note -->
  <text x="180" y="676" text-anchor="middle" font-family="Noto Sans, Inter, Arial, sans-serif" font-size="11" fill="#9A9288">Primeira vez aqui? E rapido e gratuito.</text>
</svg>
