<svg width="360" height="800" viewBox="0 0 360 800" fill="none" xmlns="http://www.w3.org/2000/svg">
  <defs>
    <linearGradient id="bg" x1="0" y1="0" x2="0" y2="1">
      <stop offset="0%" stop-color="#F6F3EE"/>
      <stop offset="100%" stop-color="#EFE9E1"/>
    </linearGradient>
    <filter id="shadow" x="-20%" y="-20%" width="140%" height="140%" color-interpolation-filters="sRGB">
      <feDropShadow dx="0" dy="8" stdDeviation="12" flood-color="#000000" flood-opacity="0.12"/>
    </filter>
    <filter id="soft" x="-20%" y="-20%" width="140%" height="140%" color-interpolation-filters="sRGB">
      <feDropShadow dx="0" dy="3" stdDeviation="6" flood-color="#000000" flood-opacity="0.10"/>
    </filter>
  </defs>

  <!-- Background -->
  <rect width="360" height="800" fill="url(#bg)"/>

  <!-- Generic browser window -->
  <rect x="10" y="10" width="340" height="780" rx="18" fill="#E9E3DA"/>
  <rect x="16" y="16" width="328" height="56" rx="14" fill="#F7F2EC"/>
  <circle cx="34" cy="34" r="6" fill="#D9D2C7"/>
  <circle cx="54" cy="34" r="6" fill="#D9D2C7"/>
  <circle cx="74" cy="34" r="6" fill="#D9D2C7"/>
  <rect x="96" y="28" width="228" height="20" rx="10" fill="#EAE3DA"/>
  <rect x="104" y="32" width="120" height="12" rx="6" fill="#CFC7BB"/>

  <!-- Reading card -->
  <rect x="16" y="80" width="328" height="690" rx="22" fill="#FFFDFB" filter="url(#shadow)"/>

  <!-- Tap highlight (behind text, tight to word) -->
  <rect x="36" y="246" width="124" height="24" rx="6" fill="#CFEAE4"/>

  <!-- Reading text -->
  <text x="36" y="124" font-family="Noto Serif, Literata, Georgia, serif" font-size="18" fill="#3E3A34">
    <tspan x="36" dy="0">A cidade acordou cedo, com uma luz</tspan>
    <tspan x="36" dy="28">suave entrando pelas janelas. O café</tspan>
    <tspan x="36" dy="28">ainda fumegava quando ela abriu o</tspan>
    <tspan x="36" dy="28">livro antigo e encontrou uma palavra</tspan>
    <tspan x="36" dy="28">que não conhecia:</tspan>
    <tspan x="36" dy="28" fill="#0B5A44" font-weight="600">"significando"</tspan>
    <tspan x="36" dy="28">Ela tocou a palavra e o significado</tspan>
    <tspan x="36" dy="28">surgiu instantaneamente.</tspan>
  </text>

  <!-- Translation pop-up -->
  <g filter="url(#shadow)">
  <rect x="40" y="290" width="280" height="120" rx="18" fill="#FFFFFF"/>
  </g>
  <text x="56" y="332" font-family="Noto Sans, Inter, Arial, sans-serif" font-size="14" fill="#7A736B">significando (gerúndio)</text>
  <g transform="translate(56 340)">
    <circle cx="9" cy="12" r="7" fill="none" stroke="#E6E0D7" stroke-width="2"/>
    <path d="M9 5A7 7 0 0 1 15 12" fill="none" stroke="#0F6B5C" stroke-width="2" stroke-linecap="round"/>
    <text x="24" y="16" font-family="Noto Serif, Literata, Georgia, serif" font-size="18" fill="#2D2924" font-weight="600">A traduzir...</text>
  </g>
  <text x="56" y="384" font-family="Noto Sans, Inter, Arial, sans-serif" font-size="13" fill="#5B554E">"Ela tocou a palavra e o significado surgiu..."</text>

  <!-- Footer fade for readability -->
  <rect x="16" y="672" width="328" height="60" rx="22" fill="#FFFDFB"/>
  <rect x="36" y="690" width="150" height="10" rx="5" fill="#E6E0D7"/>
  <rect x="36" y="708" width="90" height="10" rx="5" fill="#EFE9E1"/>
</svg>
