<svg width="720" height="520" viewBox="0 0 720 520" fill="none" xmlns="http://www.w3.org/2000/svg">
  <defs>
    <linearGradient id="bg" x1="0" y1="0" x2="0" y2="1">
      <stop offset="0%" stop-color="#F6F3EE"/>
      <stop offset="100%" stop-color="#EFE9E1"/>
    </linearGradient>
    <filter id="shadow" x="-20%" y="-20%" width="140%" height="140%" color-interpolation-filters="sRGB">
      <feDropShadow dx="0" dy="14" stdDeviation="18" flood-color="#281F16" flood-opacity="0.12"/>
    </filter>
  </defs>

  <rect width="720" height="520" fill="url(#bg)"/>

  <g filter="url(#shadow)">
    <rect x="40" y="40" width="640" height="440" rx="22" fill="#FFFEFC" stroke="#EEE6DA"/>
  </g>

  <text x="70" y="92" font-family="Work Sans, Arial, sans-serif" font-size="18" font-weight="600" fill="#5B554E">palavras</text>

  <g>
    <circle cx="590" cy="86" r="16" fill="#FFFFFF" stroke="#EEE6DA"/>
    <g transform="translate(582 78) scale(0.8)">
      <path
        d="M16.5 10a6.5 6.5 0 1 1-2.1-4.8"
        fill="none"
        stroke="#6F685F"
        stroke-width="1.6"
        stroke-linecap="round"
        stroke-linejoin="round"
      />
      <path
        d="M16.5 4.5v4h-4"
        fill="none"
        stroke="#6F685F"
        stroke-width="1.6"
        stroke-linecap="round"
        stroke-linejoin="round"
      />
    </g>
  </g>

  <rect x="622" y="70" width="48" height="32" rx="16" fill="#FFFFFF" stroke="#EEE6DA"/>
  <text x="646" y="91" text-anchor="middle" font-family="Work Sans, Arial, sans-serif" font-size="12" font-weight="600" letter-spacing="0.4" fill="#6F685F">AI</text>

  <line x1="60" y1="124" x2="660" y2="124" stroke="#EEE6DA"/>

  <rect x="70" y="146" width="36" height="20" rx="10" fill="#F1ECE4"/>
  <text x="88" y="161" text-anchor="middle" font-family="Work Sans, Arial, sans-serif" font-size="10" font-weight="600" letter-spacing="0.8" fill="#6F685F">RU</text>

  <circle cx="132" cy="156" r="4" fill="#2D2924"/>
  <text x="146" y="162" font-family="Literata, Georgia, serif" font-size="20" font-weight="500" fill="#2D2924">словесная единица языка</text>

  <rect x="70" y="196" width="128" height="30" rx="15" fill="#FBF7F1" stroke="#EEE6DA"/>
  <text x="134" y="215" text-anchor="middle" font-family="Work Sans, Arial, sans-serif" font-size="11" font-weight="600" letter-spacing="0.4" fill="#5B554E">MOSTRAR RU</text>

  <rect x="212" y="196" width="128" height="30" rx="15" fill="#FBF7F1" stroke="#EEE6DA"/>
  <text x="276" y="215" text-anchor="middle" font-family="Work Sans, Arial, sans-serif" font-size="11" font-weight="600" letter-spacing="0.4" fill="#5B554E">MOSTRAR EN</text>

  <text x="70" y="252" font-family="Work Sans, Arial, sans-serif" font-size="12" fill="#7A736B">substantivo · gênero: feminino · número: plural</text>

  <rect x="70" y="280" width="580" height="180" rx="14" fill="#FBF7F1" stroke="#EEE6DA"/>
  <text x="90" y="306" font-family="Work Sans, Arial, sans-serif" font-size="11" letter-spacing="0.8" fill="#7A736B">FRASE</text>
  <text x="90" y="338" font-family="Work Sans, Arial, sans-serif" font-size="16" fill="#3E3A34">Um grande poeta espanhol, Federico García Lorca,</text>
  <text x="90" y="362" font-family="Work Sans, Arial, sans-serif" font-size="16" fill="#3E3A34">usava esta imagem para falar desse lugar mágico</text>
  <text x="90" y="386" font-family="Work Sans, Arial, sans-serif" font-size="16" fill="#3E3A34">que não aparece nas palavras.</text>
</svg>
