<svg width="720" height="520" viewBox="0 0 720 520" fill="none" xmlns="http://www.w3.org/2000/svg">
  <defs>
    <linearGradient id="bg" x1="0" y1="0" x2="0" y2="1">
      <stop offset="0%" stop-color="#F6F3EE"/>
      <stop offset="100%" stop-color="#EFE9E1"/>
    </linearGradient>
    <filter id="shadow" x="-20%" y="-20%" width="140%" height="140%" color-interpolation-filters="sRGB">
      <feDropShadow dx="0" dy="8" stdDeviation="12" flood-color="#000000" flood-opacity="0.12"/>
    </filter>
  </defs>

  <rect width="720" height="520" fill="url(#bg)"/>

  <g filter="url(#shadow)">
    <rect x="40" y="30" width="640" height="460" rx="18" fill="#FFFFFF"/>
  </g>

  <text x="64" y="84" font-family="Work Sans, Inter, Arial, sans-serif" font-size="20" font-weight="500" fill="#7A736B">cativou (verbo, regular)</text>
  <g transform="translate(640 64)">
    <circle cx="12" cy="12" r="12" fill="#FFFFFF" stroke="#EAE3DA"/>
    <path d="M15.5 12a4.5 4.5 0 1 1-1.5-3.3" fill="none" stroke="#7A736B" stroke-width="1.6" stroke-linecap="round" stroke-linejoin="round"/>
    <path d="M15.5 7.5v4h-4" fill="none" stroke="#7A736B" stroke-width="1.6" stroke-linecap="round" stroke-linejoin="round"/>
  </g>

  <g transform="translate(0 20)">
    <g transform="translate(64 74)">
      <circle cx="10" cy="16" r="8" fill="none" stroke="#E6E0D7" stroke-width="2"/>
      <path d="M10 8A8 8 0 0 1 18 16" fill="none" stroke="#0F6B5C" stroke-width="2" stroke-linecap="round"/>
      <text x="28" y="20" font-family="Literata, Georgia, serif" font-size="24" font-weight="600" fill="#2D2924">A traduzir...</text>
    </g>

    <text x="64" y="124" font-family="Work Sans, Inter, Arial, sans-serif" font-size="12" fill="#7A736B">pretérito perf., inf.: cativar</text>
    <text x="64" y="148" font-family="Work Sans, Inter, Arial, sans-serif" font-size="12" fill="#0F6B5C">Uso 1</text>
    <text x="64" y="168" font-family="Work Sans, Inter, Arial, sans-serif" font-size="14" fill="#3E3A34">O músico cativou a plateia.</text>
    <text x="64" y="186" font-family="Work Sans, Inter, Arial, sans-serif" font-size="12" fill="#5B554E">The musician captivated the audience.</text>

    <text x="64" y="208" font-family="Work Sans, Inter, Arial, sans-serif" font-size="12" fill="#0F6B5C">Uso 2</text>
    <text x="64" y="228" font-family="Work Sans, Inter, Arial, sans-serif" font-size="14" fill="#3E3A34">A história cativou leitores exigentes.</text>
    <text x="64" y="246" font-family="Work Sans, Inter, Arial, sans-serif" font-size="12" fill="#5B554E">The story captivated demanding readers.</text>

    <text x="64" y="286" font-family="Work Sans, Inter, Arial, sans-serif" font-size="12" letter-spacing="0.6" fill="#7A736B">FORMAS VERBAIS</text>

    <rect x="64" y="300" width="592" height="132" rx="8" fill="#FFFFFF" stroke="#EAE3DA"/>
    <line x1="264" y1="300" x2="264" y2="432" stroke="#EAE3DA"/>
    <line x1="64" y1="322" x2="656" y2="322" stroke="#EFE9E1"/>
    <line x1="64" y1="344" x2="656" y2="344" stroke="#EFE9E1"/>
    <line x1="64" y1="366" x2="656" y2="366" stroke="#EFE9E1"/>
    <line x1="64" y1="388" x2="656" y2="388" stroke="#EFE9E1"/>
    <line x1="64" y1="410" x2="656" y2="410" stroke="#EFE9E1"/>

    <text x="74" y="316" font-family="Work Sans, Inter, Arial, sans-serif" font-size="12" fill="#5B554E">Tempo</text>
    <text x="274" y="316" font-family="Work Sans, Inter, Arial, sans-serif" font-size="12" fill="#5B554E">Forma</text>

    <text x="74" y="338" font-family="Work Sans, Inter, Arial, sans-serif" font-size="12" fill="#3E3A34">Pres. do ind.</text>
    <text x="274" y="338" font-family="Work Sans, Inter, Arial, sans-serif" font-size="12" fill="#3E3A34">cativo, cativas, cativa, cativamos, cativam</text>

    <text x="74" y="360" font-family="Work Sans, Inter, Arial, sans-serif" font-size="12" fill="#3E3A34">Pretérito perf.</text>
    <text x="274" y="360" font-family="Work Sans, Inter, Arial, sans-serif" font-size="12" fill="#3E3A34">cativei, cativaste, cativou, cativamos, cativaram</text>

    <text x="74" y="382" font-family="Work Sans, Inter, Arial, sans-serif" font-size="12" fill="#3E3A34">Pretérito imperf.</text>
    <text x="274" y="382" font-family="Work Sans, Inter, Arial, sans-serif" font-size="12" fill="#3E3A34">cativava, cativavas, cativava, cativávamos, cativavam</text>

    <text x="74" y="404" font-family="Work Sans, Inter, Arial, sans-serif" font-size="12" fill="#3E3A34">Fut.</text>
    <text x="274" y="404" font-family="Work Sans, Inter, Arial, sans-serif" font-size="12" fill="#3E3A34">cativarei, cativarás, cativará, cativaremos, cativarão</text>

    <text x="74" y="426" font-family="Work Sans, Inter, Arial, sans-serif" font-size="12" fill="#3E3A34">Part. pass.</text>
    <text x="274" y="426" font-family="Work Sans, Inter, Arial, sans-serif" font-size="12" fill="#3E3A34">cativado</text>
  </g>
</svg>
