<svg width="360" height="800" viewBox="0 0 360 800" fill="none" xmlns="http://www.w3.org/2000/svg">
  <defs>
    <linearGradient id="bg" x1="0" y1="0" x2="0" y2="1">
      <stop offset="0%" stop-color="#F6F3EE"/>
      <stop offset="100%" stop-color="#EFE9E1"/>
    </linearGradient>
    <filter id="shadow" x="-20%" y="-20%" width="140%" height="140%" color-interpolation-filters="sRGB">
      <feDropShadow dx="0" dy="8" stdDeviation="12" flood-color="#000000" flood-opacity="0.12"/>
    </filter>
    <filter id="soft" x="-20%" y="-20%" width="140%" height="140%" color-interpolation-filters="sRGB">
      <feDropShadow dx="0" dy="3" stdDeviation="6" flood-color="#000000" flood-opacity="0.10"/>
    </filter>
    <linearGradient id="badge" x1="0" y1="0" x2="1" y2="1">
      <stop offset="0%" stop-color="#CFEAE4"/>
      <stop offset="100%" stop-color="#E7F4F1"/>
    </linearGradient>
  </defs>

  <!-- Background -->
  <rect width="360" height="800" fill="url(#bg)"/>

  <!-- Generic browser window -->
  <rect x="10" y="10" width="340" height="780" rx="18" fill="#E9E3DA"/>
  <rect x="16" y="16" width="328" height="56" rx="14" fill="#F7F2EC"/>
  <circle cx="34" cy="34" r="6" fill="#D9D2C7"/>
  <circle cx="54" cy="34" r="6" fill="#D9D2C7"/>
  <circle cx="74" cy="34" r="6" fill="#D9D2C7"/>
  <rect x="96" y="28" width="228" height="20" rx="10" fill="#EAE3DA"/>
  <rect x="104" y="32" width="120" height="12" rx="6" fill="#CFC7BB"/>

  <!-- Sign-up card -->
  <rect x="16" y="80" width="328" height="690" rx="22" fill="#FFFDFB" filter="url(#shadow)"/>

  <!-- Logo badge -->
  <g filter="url(#soft)">
    <circle cx="180" cy="158" r="40" fill="url(#badge)"/>
  </g>
  <path d="M150 144 Q164 136 180 144 Q196 136 210 144 L210 176 Q196 184 180 176 Q164 184 150 176 Z" fill="#FFFFFF" stroke="#0F6B5C" stroke-width="2"/>
  <line x1="180" y1="144" x2="180" y2="176" stroke="#0F6B5C" stroke-width="2"/>
  <line x1="156" y1="152" x2="174" y2="152" stroke="#0F6B5C" stroke-width="1.5" stroke-linecap="round"/>
  <line x1="156" y1="160" x2="174" y2="160" stroke="#0F6B5C" stroke-width="1.5" stroke-linecap="round"/>
  <line x1="156" y1="168" x2="174" y2="168" stroke="#0F6B5C" stroke-width="1.5" stroke-linecap="round"/>
  <line x1="186" y1="152" x2="204" y2="152" stroke="#0F6B5C" stroke-width="1.5" stroke-linecap="round"/>
  <line x1="186" y1="160" x2="204" y2="160" stroke="#0F6B5C" stroke-width="1.5" stroke-linecap="round"/>
  <line x1="186" y1="168" x2="204" y2="168" stroke="#0F6B5C" stroke-width="1.5" stroke-linecap="round"/>

  <!-- Headline -->
  <text x="180" y="228" text-anchor="middle" font-family="Noto Serif, Literata, Georgia, serif" font-size="22" fill="#2D2924" font-weight="600">Criar conta</text>
  <text x="180" y="252" text-anchor="middle" font-family="Noto Sans, Inter, Arial, sans-serif" font-size="13" fill="#6C655D">Comece a ler em minutos</text>

  <!-- Form fields -->
  <text x="56" y="292" font-family="Noto Sans, Inter, Arial, sans-serif" font-size="12" fill="#6C655D">Email</text>
  <rect x="56" y="300" width="248" height="46" rx="12" fill="#FFFDFB" stroke="#E6E0D7" stroke-width="2"/>
  <text x="70" y="330" font-family="Noto Sans, Inter, Arial, sans-serif" font-size="13" fill="#9A9288">seu@email.com</text>

  <text x="56" y="368" font-family="Noto Sans, Inter, Arial, sans-serif" font-size="12" fill="#6C655D">Senha</text>
  <rect x="56" y="376" width="248" height="46" rx="12" fill="#FFFDFB" stroke="#E6E0D7" stroke-width="2"/>
  <text x="70" y="406" font-family="Noto Sans, Inter, Arial, sans-serif" font-size="18" fill="#9A9288">••••••••</text>

  <text x="56" y="444" font-family="Noto Sans, Inter, Arial, sans-serif" font-size="12" fill="#6C655D">Confirmar senha</text>
  <rect x="56" y="452" width="248" height="46" rx="12" fill="#FFFDFB" stroke="#E6E0D7" stroke-width="2"/>
  <text x="70" y="482" font-family="Noto Sans, Inter, Arial, sans-serif" font-size="18" fill="#9A9288">••••••••</text>

  <!-- Primary button -->
  <g filter="url(#soft)">
    <rect x="56" y="528" width="248" height="48" rx="14" fill="#0F6B5C"/>
  </g>
  <text x="180" y="558" text-anchor="middle" font-family="Noto Sans, Inter, Arial, sans-serif" font-size="16" fill="#FFFFFF" font-weight="600">Criar conta</text>

  <!-- Helper link -->
  <text x="180" y="598" text-anchor="middle" font-family="Noto Sans, Inter, Arial, sans-serif" font-size="12" fill="#8A8278">Ja tem conta? Entrar</text>
</svg>
